<?xml version="1.0" encoding="utf-8"?>
<!-- Svg Vector Icons : http://www.onlinewebfonts.com/icon -->
<!DOCTYPE svg PUBLIC "-//W3C//DTD SVG 1.1//EN" "http://www.w3.org/Graphics/SVG/1.1/DTD/svg11.dtd">
<svg version="1.1" xmlns="http://www.w3.org/2000/svg" xmlns:xlink="http://www.w3.org/1999/xlink" x="0px" y="0px" viewBox="0 0 256 256" enable-background="new 0 0 256 256" xml:space="preserve">
<metadata> Svg Vector Icons : http://www.onlinewebfonts.com/icon </metadata>
<g><g><path fill="#000000" d="M242.8,85.5L130.9,45.7c-1.1-0.4-2.3-0.4-3.3,0L16.8,85c-1.8,0.6-3.1,2.3-3.2,4.2c-0.1,1.9,1,3.6,2.7,4.5l22.3,10.5c-6.6,8-7.6,22.2-7.7,28.5c-5.1,3.4-6.5,7.3-6.6,10.1c-0.4,5.8,3.9,10.7,6.8,13.3c-4.5,22.4-19.5,36.4-19.6,36.6c-1.1,1-1.6,2.4-1.5,3.9c0.1,1.4,0.9,2.7,2.2,3.5l15.9,10c0.8,0.5,1.7,0.7,2.6,0.7c0.6,0,1.1-0.1,1.7-0.3c24.2-8.5,20.3-47.5,18.9-57.3c3.2-4,4.5-8.1,3.9-12c-0.5-3.7-2.6-6.4-4.2-7.9c-5.2-35.6,25-17,21.4-18.3l55.1,20c1.1,0.4,2.3,0.4,3.4,0l111.9-40.4c1.9-0.7,3.2-2.4,3.2-4.4C246,87.9,244.7,86.2,242.8,85.5z M43.5,139.1c0,0,1.9,1.3,2.1,3.2c0.3,2.1-1.5,4.5-3.1,6.2c-1,1.1-1.4,2.5-1.2,3.9c2,11.2,3.8,40.5-10.2,48.1l-8.9-5.5c5.8-6.7,15.8-20.7,18.9-40.2c0.3-1.8-0.5-3.5-2-4.6c-1.8-1.3-5.3-4.7-5.2-7c0.1-1.7,2.6-3.2,4.1-4c1.6-0.8,2.6-2.5,2.6-4.3c-0.4-10,2.1-25.5,8.4-27.1c-4.3,5.5-8.1,14.1-7.9,27.3C41.3,136.8,42.2,138.3,43.5,139.1z M129.3,125.3L30.8,90l98.4-34.9l97.9,34.8L129.3,125.3z M200.1,114.8l-68.3,22.4l-69.3-22.4c-1.5-0.5-3.1-0.2-4.4,0.7s-2,2.3-2,3.8v14.9c0,1.6,0.8,3.1,2.3,4c2.7,1.7,4.3,3.7,4.8,6c0.8,4.2-1.9,9.1-3,10.6c-1.4,1.9-1.2,4.5,0.5,6.1c17.5,17,47.2,20.6,69.1,20.6c15.5,0,27-1.8,27.7-1.9c43.5-8.6,48.4-22,49-24.6c0-0.3,0.1-0.6,0.1-0.9v-34.8c0-1.5-0.7-2.9-2-3.8C203.2,114.6,201.5,114.4,200.1,114.8z M196.8,153.2L196.8,153.2c-1.1,1.8-8,10.6-41.1,17.2c-0.3,0-57.9,8.8-85.5-13.7c1.7-3.4,3.6-8.6,2.5-14.2c-0.8-4.1-3.2-7.8-6.9-10.7v-6l64.4,20.8c1,0.3,2.1,0.3,3.1,0l63.4-20.8V153.2L196.8,153.2z"/></g></g>
</svg>